<svg width="308" height="37" viewBox="0 0 308 37" fill="none" xmlns="http://www.w3.org/2000/svg">
<path d="M16.155 0.449999H24.705L40.14 36H31.77L28.89 29.115H11.97L9.045 36H0.72L16.155 0.449999ZM25.695 21.555L20.43 9.135L15.165 21.555H25.695ZM80.1014 17.595C82.2314 18.045 83.8664 19.05 85.0064 20.61C86.1464 22.14 86.7164 23.97 86.7164 26.1C86.7164 27.96 86.2364 29.655 85.2764 31.185C84.3164 32.685 82.9814 33.87 81.2714 34.74C79.5614 35.58 77.6264 36 75.4664 36H57.6464V0.449999H74.2964C77.6864 0.449999 80.3564 1.305 82.3064 3.015C84.2564 4.695 85.2314 6.96 85.2314 9.81C85.2314 11.7 84.7814 13.32 83.8814 14.67C82.9814 16.02 81.7214 16.995 80.1014 17.595ZM65.3864 14.76H71.6414C73.6514 14.76 75.1064 14.52 76.0064 14.04C76.9064 13.53 77.3564 12.72 77.3564 11.61C77.3564 10.38 76.8764 9.48 75.9164 8.91C74.9864 8.31 73.4864 8.01 71.4164 8.01H65.3864V14.76ZM72.7214 28.44C74.8214 28.44 76.3514 28.155 77.3114 27.585C78.2714 26.985 78.7514 26.07 78.7514 24.84C78.7514 23.7 78.2864 22.86 77.3564 22.32C76.4264 21.78 74.9414 21.51 72.9014 21.51H65.3864V28.44H72.7214ZM103.298 36.72C100.928 36.72 98.7982 36.195 96.9082 35.145C95.0482 34.065 93.5932 32.58 92.5432 30.69C91.4932 28.8 90.9682 26.655 90.9682 24.255C90.9682 21.885 91.4932 19.755 92.5432 17.865C93.5932 15.975 95.0482 14.505 96.9082 13.455C98.7982 12.405 100.928 11.88 103.298 11.88C105.428 11.88 107.333 12.405 109.013 13.455C110.723 14.475 112.058 15.915 113.018 17.775C113.978 19.635 114.458 21.78 114.458 24.21V26.46H98.4832C98.8132 29.31 100.463 30.735 103.433 30.735C104.423 30.735 105.233 30.51 105.863 30.06C106.493 29.58 106.868 28.95 106.988 28.17H114.413C114.053 30.78 112.853 32.865 110.813 34.425C108.773 35.955 106.268 36.72 103.298 36.72ZM107.033 22.095C106.973 20.955 106.598 20.025 105.908 19.305C105.218 18.585 104.258 18.225 103.028 18.225C100.448 18.225 98.9332 19.515 98.4832 22.095H107.033ZM134.29 35.955C132.13 36.105 130.45 36.18 129.25 36.18C127.39 36.18 125.935 36 124.885 35.64C123.835 35.28 123.055 34.635 122.545 33.705C122.065 32.775 121.84 31.44 121.87 29.7V19.35H116.875V12.6H121.87V6.3H129.25V12.6H135.145V19.35H129.25V25.74C129.25 26.88 129.295 27.705 129.385 28.215C129.505 28.725 129.73 29.085 130.06 29.295C130.42 29.505 131.02 29.61 131.86 29.61C132.49 29.61 133.3 29.565 134.29 29.475V35.955ZM154.944 35.955C152.784 36.105 151.104 36.18 149.904 36.18C148.044 36.18 146.589 36 145.539 35.64C144.489 35.28 143.709 34.635 143.199 33.705C142.719 32.775 142.494 31.44 142.524 29.7V19.35H137.529V12.6H142.524V6.3H149.904V12.6H155.799V19.35H149.904V25.74C149.904 26.88 149.949 27.705 150.039 28.215C150.159 28.725 150.384 29.085 150.714 29.295C151.074 29.505 151.674 29.61 152.514 29.61C153.144 29.61 153.954 29.565 154.944 29.475V35.955ZM171.413 36.72C169.043 36.72 166.913 36.195 165.023 35.145C163.163 34.065 161.708 32.58 160.658 30.69C159.608 28.8 159.083 26.655 159.083 24.255C159.083 21.885 159.608 19.755 160.658 17.865C161.708 15.975 163.163 14.505 165.023 13.455C166.913 12.405 169.043 11.88 171.413 11.88C173.543 11.88 175.448 12.405 177.128 13.455C178.838 14.475 180.173 15.915 181.133 17.775C182.093 19.635 182.573 21.78 182.573 24.21V26.46H166.598C166.928 29.31 168.578 30.735 171.548 30.735C172.538 30.735 173.348 30.51 173.978 30.06C174.608 29.58 174.983 28.95 175.103 28.17H182.528C182.168 30.78 180.968 32.865 178.928 34.425C176.888 35.955 174.383 36.72 171.413 36.72ZM175.148 22.095C175.088 20.955 174.713 20.025 174.023 19.305C173.333 18.585 172.373 18.225 171.143 18.225C168.563 18.225 167.048 19.515 166.598 22.095H175.148ZM187.361 12.6H194.696V16.965C196.166 13.875 199.211 12.33 203.831 12.33V19.485C201.671 19.485 200.021 19.545 198.881 19.665C197.741 19.755 196.751 20.1 195.911 20.7C195.101 21.27 194.696 22.215 194.696 23.535V36H187.361V12.6ZM221.343 0.449999H229.083V29.205H248.298V36H221.343V0.449999ZM255.607 9.945C254.257 9.945 253.147 9.525 252.277 8.685C251.407 7.815 250.972 6.72 250.972 5.4C250.972 4.08 251.407 3 252.277 2.16C253.147 1.32 254.257 0.899999 255.607 0.899999C256.927 0.899999 258.007 1.32 258.847 2.16C259.717 3 260.152 4.08 260.152 5.4C260.152 6.72 259.717 7.815 258.847 8.685C258.007 9.525 256.927 9.945 255.607 9.945ZM251.917 12.6H259.297V36H251.917V12.6ZM268.299 19.35H262.854V12.6H268.299V10.62C268.269 8.64 268.599 6.885 269.289 5.355C270.009 3.825 271.074 2.625 272.484 1.755C273.894 0.884999 275.574 0.449999 277.524 0.449999H281.394V7.2H279.954C278.904 7.2 278.079 7.32 277.479 7.56C276.879 7.8 276.429 8.235 276.129 8.865C275.829 9.495 275.679 10.41 275.679 11.61V12.6H281.934V19.35H275.679V36H268.299V19.35ZM296.306 36.72C293.936 36.72 291.806 36.195 289.916 35.145C288.056 34.065 286.601 32.58 285.551 30.69C284.501 28.8 283.976 26.655 283.976 24.255C283.976 21.885 284.501 19.755 285.551 17.865C286.601 15.975 288.056 14.505 289.916 13.455C291.806 12.405 293.936 11.88 296.306 11.88C298.436 11.88 300.341 12.405 302.021 13.455C303.731 14.475 305.066 15.915 306.026 17.775C306.986 19.635 307.466 21.78 307.466 24.21V26.46H291.491C291.821 29.31 293.471 30.735 296.441 30.735C297.431 30.735 298.241 30.51 298.871 30.06C299.501 29.58 299.876 28.95 299.996 28.17H307.421C307.061 30.78 305.861 32.865 303.821 34.425C301.781 35.955 299.276 36.72 296.306 36.72ZM300.041 22.095C299.981 20.955 299.606 20.025 298.916 19.305C298.226 18.585 297.266 18.225 296.036 18.225C293.456 18.225 291.941 19.515 291.491 22.095H300.041Z" fill="#222222"/>
</svg>
