<svg width="268" height="46" viewBox="0 0 268 46" fill="none" xmlns="http://www.w3.org/2000/svg">
<path d="M18.5928 37.72C15.0528 37.72 11.8878 36.925 9.09777 35.335C6.33777 33.745 4.17777 31.54 2.61777 28.72C1.05777 25.87 0.277774 22.645 0.277774 19.045C0.277774 15.505 1.04277 12.355 2.57277 9.595C4.13277 6.805 6.29277 4.63 9.05277 3.07C11.8428 1.51 14.9928 0.729998 18.5028 0.729998C21.2628 0.729998 23.7978 1.285 26.1078 2.395C28.4478 3.475 30.3678 5.065 31.8678 7.165C33.3678 9.235 34.2978 11.68 34.6578 14.5H26.6478C26.2878 12.58 25.3578 11.065 23.8578 9.955C22.3878 8.845 20.5428 8.29 18.3228 8.29C15.2028 8.29 12.7428 9.235 10.9428 11.125C9.17277 12.985 8.28777 15.55 8.28777 18.82C8.28777 22.36 9.17277 25.135 10.9428 27.145C12.7128 29.155 15.1428 30.16 18.2328 30.16C20.6328 30.16 22.6128 29.545 24.1728 28.315C25.7628 27.085 26.7228 25.42 27.0528 23.32H35.0628C34.6128 26.26 33.5928 28.825 32.0028 31.015C30.4428 33.175 28.4928 34.84 26.1528 36.01C23.8128 37.15 21.2928 37.72 18.5928 37.72ZM51.5507 37.72C49.1207 37.72 46.9457 37.195 45.0257 36.145C43.1057 35.065 41.6057 33.58 40.5257 31.69C39.4457 29.8 38.9057 27.655 38.9057 25.255C38.9057 22.855 39.4457 20.725 40.5257 18.865C41.6057 16.975 43.1057 15.505 45.0257 14.455C46.9457 13.405 49.1207 12.88 51.5507 12.88C54.0107 12.88 56.2007 13.405 58.1207 14.455C60.0707 15.505 61.5857 16.975 62.6657 18.865C63.7457 20.725 64.2857 22.855 64.2857 25.255C64.2857 27.655 63.7457 29.8 62.6657 31.69C61.5857 33.58 60.0707 35.065 58.1207 36.145C56.2007 37.195 54.0107 37.72 51.5507 37.72ZM51.5507 31.375C53.1107 31.375 54.3857 30.805 55.3757 29.665C56.3657 28.525 56.8607 27.055 56.8607 25.255C56.8607 23.485 56.3657 22.045 55.3757 20.935C54.3857 19.795 53.1107 19.225 51.5507 19.225C50.0207 19.225 48.7607 19.795 47.7707 20.935C46.7807 22.075 46.2857 23.515 46.2857 25.255C46.2857 27.025 46.7807 28.495 47.7707 29.665C48.7607 30.805 50.0207 31.375 51.5507 31.375ZM68.6338 13.6H76.0138V16.75C77.7238 14.17 80.3338 12.88 83.8438 12.88C87.4438 12.88 89.9188 14.29 91.2688 17.11C92.4088 15.58 93.7288 14.5 95.2288 13.87C96.7588 13.21 98.4688 12.88 100.359 12.88C106.179 12.88 109.089 16.6 109.089 24.04V37H101.574V24.4C101.574 22.78 101.199 21.52 100.449 20.62C99.6988 19.69 98.6338 19.225 97.2538 19.225C95.8138 19.225 94.6738 19.735 93.8338 20.755C92.9938 21.775 92.5738 23.14 92.5738 24.85V37H85.0588V24.4C85.0588 22.78 84.6688 21.52 83.8888 20.62C83.1388 19.69 82.0738 19.225 80.6938 19.225C79.2538 19.225 78.1138 19.735 77.2738 20.755C76.4338 21.775 76.0138 23.14 76.0138 24.85V37H68.6338V13.6ZM114.469 13.6H121.849V16.435C123.499 14.065 126.124 12.88 129.724 12.88C131.644 12.88 133.354 13.42 134.854 14.5C136.384 15.55 137.569 17.02 138.409 18.91C139.249 20.8 139.669 22.96 139.669 25.39C139.669 27.76 139.249 29.89 138.409 31.78C137.569 33.64 136.384 35.095 134.854 36.145C133.354 37.195 131.644 37.72 129.724 37.72C126.154 37.72 123.529 36.535 121.849 34.165V46H114.469V13.6ZM127.069 31.375C128.599 31.375 129.844 30.82 130.804 29.71C131.794 28.57 132.289 27.115 132.289 25.345C132.289 23.575 131.794 22.12 130.804 20.98C129.844 19.81 128.599 19.225 127.069 19.225C125.539 19.225 124.279 19.81 123.289 20.98C122.329 22.12 121.849 23.575 121.849 25.345C121.849 27.115 122.329 28.57 123.289 29.71C124.279 30.82 125.539 31.375 127.069 31.375ZM151.75 37.72C148.84 37.72 146.65 37.045 145.18 35.695C143.74 34.345 143.02 32.68 143.02 30.7C143.02 28.63 143.92 26.92 145.72 25.57C147.52 24.22 150.055 23.335 153.325 22.915L158.545 22.285V21.79C158.575 20.98 158.275 20.35 157.645 19.9C157.015 19.45 156.1 19.225 154.9 19.225C153.79 19.225 152.905 19.465 152.245 19.945C151.615 20.425 151.3 21.085 151.3 21.925H143.965C143.965 19.075 144.925 16.855 146.845 15.265C148.795 13.675 151.51 12.88 154.99 12.88C158.47 12.88 161.17 13.66 163.09 15.22C165.01 16.78 165.97 18.97 165.97 21.79V29.08C165.97 30.01 166.075 30.655 166.285 31.015C166.525 31.375 166.975 31.555 167.635 31.555L168.175 31.51L168.13 36.82C166.93 37.06 165.91 37.18 165.07 37.18C163.39 37.18 162.07 36.835 161.11 36.145C160.15 35.425 159.535 34.435 159.265 33.175C157.945 36.205 155.44 37.72 151.75 37.72ZM153.235 32.32C154.645 32.32 155.77 31.885 156.61 31.015C157.45 30.115 157.99 28.945 158.23 27.505L156.61 27.73C154.39 28.03 152.8 28.36 151.84 28.72C150.88 29.05 150.4 29.575 150.4 30.295C150.4 30.955 150.655 31.465 151.165 31.825C151.675 32.155 152.365 32.32 153.235 32.32ZM171.949 13.6H179.329V16.75C181.039 14.17 183.649 12.88 187.159 12.88C192.979 12.88 195.889 16.6 195.889 24.04V37H188.374V24.4C188.374 22.78 187.984 21.52 187.204 20.62C186.454 19.69 185.389 19.225 184.009 19.225C182.569 19.225 181.429 19.735 180.589 20.755C179.749 21.775 179.329 23.14 179.329 24.85V37H171.949V13.6ZM204.995 10.945C203.645 10.945 202.535 10.525 201.665 9.685C200.795 8.815 200.36 7.72 200.36 6.4C200.36 5.08 200.795 4 201.665 3.16C202.535 2.32 203.645 1.9 204.995 1.9C206.315 1.9 207.395 2.32 208.235 3.16C209.105 4 209.54 5.08 209.54 6.4C209.54 7.72 209.105 8.815 208.235 9.685C207.395 10.525 206.315 10.945 204.995 10.945ZM201.305 13.6H208.685V37H201.305V13.6ZM226.101 37.72C223.671 37.72 221.496 37.195 219.576 36.145C217.656 35.065 216.156 33.58 215.076 31.69C213.996 29.8 213.456 27.655 213.456 25.255C213.456 22.855 213.996 20.725 215.076 18.865C216.156 16.975 217.656 15.505 219.576 14.455C221.496 13.405 223.671 12.88 226.101 12.88C228.561 12.88 230.751 13.405 232.671 14.455C234.621 15.505 236.136 16.975 237.216 18.865C238.296 20.725 238.836 22.855 238.836 25.255C238.836 27.655 238.296 29.8 237.216 31.69C236.136 33.58 234.621 35.065 232.671 36.145C230.751 37.195 228.561 37.72 226.101 37.72ZM226.101 31.375C227.661 31.375 228.936 30.805 229.926 29.665C230.916 28.525 231.411 27.055 231.411 25.255C231.411 23.485 230.916 22.045 229.926 20.935C228.936 19.795 227.661 19.225 226.101 19.225C224.571 19.225 223.311 19.795 222.321 20.935C221.331 22.075 220.836 23.515 220.836 25.255C220.836 27.025 221.331 28.495 222.321 29.665C223.311 30.805 224.571 31.375 226.101 31.375ZM243.185 13.6H250.565V16.75C252.275 14.17 254.885 12.88 258.395 12.88C264.215 12.88 267.125 16.6 267.125 24.04V37H259.61V24.4C259.61 22.78 259.22 21.52 258.44 20.62C257.69 19.69 256.625 19.225 255.245 19.225C253.805 19.225 252.665 19.735 251.825 20.755C250.985 21.775 250.565 23.14 250.565 24.85V37H243.185V13.6Z" fill="#222222"/>
</svg>
