<svg width="161" height="46" viewBox="0 0 161 46" fill="none" xmlns="http://www.w3.org/2000/svg">
<path d="M0.33 0.449999H16.035C19.725 0.449999 22.935 1.155 25.665 2.565C28.395 3.945 30.495 5.97 31.965 8.64C33.465 11.31 34.215 14.49 34.215 18.18C34.215 21.81 33.465 24.975 31.965 27.675C30.465 30.345 28.335 32.4 25.575 33.84C22.845 35.28 19.665 36 16.035 36H0.33V0.449999ZM16.035 29.025C19.215 29.025 21.705 28.065 23.505 26.145C25.305 24.225 26.205 21.555 26.205 18.135C26.205 14.775 25.305 12.15 23.505 10.26C21.705 8.37 19.215 7.425 16.035 7.425H8.07V29.025H16.035ZM50.4203 36.72C48.0503 36.72 45.9203 36.195 44.0303 35.145C42.1703 34.065 40.7153 32.58 39.6653 30.69C38.6153 28.8 38.0903 26.655 38.0903 24.255C38.0903 21.885 38.6153 19.755 39.6653 17.865C40.7153 15.975 42.1703 14.505 44.0303 13.455C45.9203 12.405 48.0503 11.88 50.4203 11.88C52.5503 11.88 54.4553 12.405 56.1353 13.455C57.8453 14.475 59.1803 15.915 60.1403 17.775C61.1003 19.635 61.5803 21.78 61.5803 24.21V26.46H45.6053C45.9353 29.31 47.5853 30.735 50.5553 30.735C51.5453 30.735 52.3553 30.51 52.9853 30.06C53.6153 29.58 53.9903 28.95 54.1103 28.17H61.5353C61.1753 30.78 59.9753 32.865 57.9353 34.425C55.8953 35.955 53.3903 36.72 50.4203 36.72ZM54.1553 22.095C54.0953 20.955 53.7203 20.025 53.0303 19.305C52.3403 18.585 51.3803 18.225 50.1503 18.225C47.5703 18.225 46.0553 19.515 45.6053 22.095H54.1553ZM77.1232 36.72C73.5532 36.72 70.7332 35.985 68.6632 34.515C66.5932 33.045 65.5282 31.02 65.4682 28.44H72.8032C72.8632 29.46 73.3132 30.27 74.1532 30.87C74.9932 31.44 76.0432 31.725 77.3032 31.725C78.3832 31.725 79.2532 31.485 79.9132 31.005C80.5732 30.525 80.9032 29.97 80.9032 29.34C80.9032 28.56 80.4982 28.035 79.6882 27.765C78.8782 27.465 77.5582 27.195 75.7282 26.955C73.7482 26.715 72.1132 26.415 70.8232 26.055C69.5332 25.665 68.4082 24.975 67.4482 23.985C66.5182 22.995 66.0532 21.57 66.0532 19.71C66.0532 17.28 67.0582 15.375 69.0682 13.995C71.0782 12.585 73.8532 11.88 77.3932 11.88C80.6332 11.88 83.2132 12.63 85.1332 14.13C87.0532 15.6 88.1182 17.655 88.3282 20.295H80.9482C80.9182 19.215 80.5432 18.375 79.8232 17.775C79.1332 17.175 78.2032 16.875 77.0332 16.875C75.9232 16.875 75.0382 17.1 74.3782 17.55C73.7482 18 73.4332 18.6 73.4332 19.35C73.4332 20.07 73.8232 20.565 74.6032 20.835C75.3832 21.105 76.6732 21.36 78.4732 21.6C80.4832 21.84 82.1482 22.155 83.4682 22.545C84.7882 22.905 85.9282 23.61 86.8882 24.66C87.8482 25.68 88.3282 27.15 88.3282 29.07C88.3282 31.47 87.3382 33.345 85.3582 34.695C83.3782 36.045 80.6332 36.72 77.1232 36.72ZM96.777 9.945C95.427 9.945 94.317 9.525 93.447 8.685C92.577 7.815 92.142 6.72 92.142 5.4C92.142 4.08 92.577 3 93.447 2.16C94.317 1.32 95.427 0.899999 96.777 0.899999C98.097 0.899999 99.177 1.32 100.017 2.16C100.887 3 101.322 4.08 101.322 5.4C101.322 6.72 100.887 7.815 100.017 8.685C99.177 9.525 98.097 9.945 96.777 9.945ZM93.087 12.6H100.467V36H93.087V12.6ZM118.064 45.72C114.464 45.72 111.689 45.045 109.739 43.695C107.819 42.375 106.724 40.335 106.454 37.575H113.924C113.984 38.475 114.419 39.135 115.229 39.555C116.039 40.005 117.119 40.23 118.469 40.23C120.239 40.23 121.514 39.75 122.294 38.79C123.104 37.83 123.494 36.345 123.464 34.335V32.895C121.814 35.025 119.174 36.09 115.544 36.09C113.594 36.09 111.869 35.61 110.369 34.65C108.869 33.69 107.699 32.325 106.859 30.555C106.019 28.785 105.599 26.715 105.599 24.345C105.599 21.945 106.019 19.8 106.859 17.91C107.699 16.02 108.869 14.55 110.369 13.5C111.869 12.42 113.594 11.88 115.544 11.88C119.174 11.88 121.814 13.05 123.464 15.39V12.6H130.844V34.335C130.844 41.925 126.584 45.72 118.064 45.72ZM118.244 30.015C119.774 30.015 121.019 29.46 121.979 28.35C122.969 27.21 123.464 25.77 123.464 24.03C123.464 22.26 122.969 20.805 121.979 19.665C121.019 18.525 119.774 17.955 118.244 17.955C116.714 17.955 115.454 18.525 114.464 19.665C113.504 20.805 113.024 22.26 113.024 24.03C113.024 25.77 113.504 27.21 114.464 28.35C115.454 29.46 116.714 30.015 118.244 30.015ZM136.505 12.6H143.885V15.75C145.595 13.17 148.205 11.88 151.715 11.88C157.535 11.88 160.445 15.6 160.445 23.04V36H152.93V23.4C152.93 21.78 152.54 20.52 151.76 19.62C151.01 18.69 149.945 18.225 148.565 18.225C147.125 18.225 145.985 18.735 145.145 19.755C144.305 20.775 143.885 22.14 143.885 23.85V36H136.505V12.6Z" fill="#222222"/>
</svg>
