<svg width="18" height="10" viewBox="0 0 18 10" fill="none" xmlns="http://www.w3.org/2000/svg">
<g clip-path="url(#clip0_46_479)">
<path d="M17.5269 4.69501C17.5196 4.58431 17.4764 4.47901 17.4039 4.39501L13.9109 0.684013C13.8313 0.600072 13.7216 0.551143 13.6059 0.547957C13.4903 0.54477 13.378 0.587585 13.2939 0.667013C13.213 0.74831 13.1661 0.857456 13.1629 0.972139C13.1598 1.08682 13.2006 1.19838 13.2769 1.28401L16.0769 4.25801H0.936903C0.877823 4.25518 0.818784 4.26438 0.763362 4.28504C0.70794 4.3057 0.65729 4.3374 0.614478 4.37821C0.571666 4.41902 0.537584 4.46809 0.514297 4.52246C0.491011 4.57683 0.479004 4.63537 0.479004 4.69451C0.479004 4.75366 0.491011 4.81219 0.514297 4.86656C0.537584 4.92093 0.571666 4.97001 0.614478 5.01082C0.65729 5.05163 0.70794 5.08333 0.763362 5.10399C0.818784 5.12465 0.877823 5.13384 0.936903 5.13101H16.0809L13.2809 8.10501C13.2061 8.19137 13.1664 8.30261 13.1695 8.41682C13.1726 8.53102 13.2185 8.63991 13.2979 8.72201C13.382 8.80144 13.4943 8.84426 13.6099 8.84107C13.7256 8.83788 13.8353 8.78896 13.9149 8.70502L17.3999 4.99501C17.4408 4.9568 17.4729 4.91021 17.4941 4.85844C17.5154 4.80667 17.5252 4.75092 17.5229 4.69501H17.5269Z" fill="white" stroke="white"/>
</g>
<defs>
<clipPath id="clip0_46_479">
<rect width="18.026" height="9.343" fill="white"/>
</clipPath>
</defs>
</svg>
