<svg width="152" height="37" viewBox="0 0 152 37" fill="none" xmlns="http://www.w3.org/2000/svg">
<path d="M0.787031 0.449999H8.52703V13.77H24.412V0.449999H32.197V36H24.412V21.33H8.52703V36H0.787031V0.449999ZM49.7787 36.72C47.4087 36.72 45.2787 36.195 43.3887 35.145C41.5287 34.065 40.0737 32.58 39.0237 30.69C37.9737 28.8 37.4487 26.655 37.4487 24.255C37.4487 21.885 37.9737 19.755 39.0237 17.865C40.0737 15.975 41.5287 14.505 43.3887 13.455C45.2787 12.405 47.4087 11.88 49.7787 11.88C51.9087 11.88 53.8137 12.405 55.4937 13.455C57.2037 14.475 58.5387 15.915 59.4987 17.775C60.4587 19.635 60.9387 21.78 60.9387 24.21V26.46H44.9637C45.2937 29.31 46.9437 30.735 49.9137 30.735C50.9037 30.735 51.7137 30.51 52.3437 30.06C52.9737 29.58 53.3487 28.95 53.4687 28.17H60.8937C60.5337 30.78 59.3337 32.865 57.2937 34.425C55.2537 35.955 52.7487 36.72 49.7787 36.72ZM53.5137 22.095C53.4537 20.955 53.0787 20.025 52.3887 19.305C51.6987 18.585 50.7387 18.225 49.5087 18.225C46.9287 18.225 45.4137 19.515 44.9637 22.095H53.5137ZM73.4321 36.72C70.5221 36.72 68.3321 36.045 66.8621 34.695C65.4221 33.345 64.7021 31.68 64.7021 29.7C64.7021 27.63 65.6021 25.92 67.4021 24.57C69.2021 23.22 71.7371 22.335 75.0071 21.915L80.2271 21.285V20.79C80.2571 19.98 79.9571 19.35 79.3271 18.9C78.6971 18.45 77.7821 18.225 76.5821 18.225C75.4721 18.225 74.5871 18.465 73.9271 18.945C73.2971 19.425 72.9821 20.085 72.9821 20.925H65.6471C65.6471 18.075 66.6071 15.855 68.5271 14.265C70.4771 12.675 73.1921 11.88 76.6721 11.88C80.1521 11.88 82.8521 12.66 84.7721 14.22C86.6921 15.78 87.6521 17.97 87.6521 20.79V28.08C87.6521 29.01 87.7571 29.655 87.9671 30.015C88.2072 30.375 88.6571 30.555 89.3171 30.555L89.8571 30.51L89.8122 35.82C88.6121 36.06 87.5921 36.18 86.7521 36.18C85.0721 36.18 83.7521 35.835 82.7921 35.145C81.8321 34.425 81.2171 33.435 80.9471 32.175C79.6271 35.205 77.1221 36.72 73.4321 36.72ZM74.9171 31.32C76.3271 31.32 77.4521 30.885 78.2921 30.015C79.1321 29.115 79.6721 27.945 79.9121 26.505L78.2921 26.73C76.0721 27.03 74.4821 27.36 73.5221 27.72C72.5621 28.05 72.0821 28.575 72.0821 29.295C72.0821 29.955 72.3371 30.465 72.8471 30.825C73.3571 31.155 74.0471 31.32 74.9171 31.32ZM93.7637 0.449999H101.144V36H93.7637V0.449999ZM122.43 35.955C120.27 36.105 118.59 36.18 117.39 36.18C115.53 36.18 114.075 36 113.025 35.64C111.975 35.28 111.195 34.635 110.685 33.705C110.205 32.775 109.98 31.44 110.01 29.7V19.35H105.015V12.6H110.01V6.3H117.39V12.6H123.285V19.35H117.39V25.74C117.39 26.88 117.435 27.705 117.525 28.215C117.645 28.725 117.87 29.085 118.2 29.295C118.56 29.505 119.16 29.61 120 29.61C120.63 29.61 121.44 29.565 122.43 29.475V35.955ZM127.909 0.449999H135.289V15.705C136.999 13.155 139.609 11.88 143.119 11.88C148.939 11.88 151.849 15.585 151.849 22.995V36H144.334V23.4C144.334 21.78 143.944 20.52 143.164 19.62C142.414 18.69 141.349 18.225 139.969 18.225C138.529 18.225 137.389 18.735 136.549 19.755C135.709 20.745 135.289 22.11 135.289 23.85V36H127.909V0.449999Z" fill="#222222"/>
</svg>
