<svg width="136" height="21" viewBox="0 0 136 21" fill="none" xmlns="http://www.w3.org/2000/svg">
<path d="M0.421875 15.6172L3.79688 14.4688C4.20312 15.2188 4.82031 15.8438 5.64844 16.3438C6.49219 16.8438 7.36719 17.0938 8.27344 17.0938C9.16406 17.0938 9.875 16.8828 10.4062 16.4609C10.9531 16.0234 11.2266 15.4766 11.2266 14.8203C11.2266 14.0703 10.9219 13.4766 10.3125 13.0391C9.70312 12.5859 8.80469 12.1562 7.61719 11.75C5.77344 11.1406 4.53906 10.6719 3.91406 10.3438C2.05469 9.32812 1.125 7.82812 1.125 5.84375C1.125 4.21875 1.77344 2.90625 3.07031 1.90625C4.36719 0.890625 6.03125 0.382812 8.0625 0.382812C9.8125 0.382812 11.2891 0.796875 12.4922 1.625C13.7109 2.4375 14.6094 3.49219 15.1875 4.78906L11.9062 5.86719C10.875 4.44531 9.58594 3.73438 8.03906 3.73438C7.14844 3.73438 6.44531 3.92969 5.92969 4.32031C5.41406 4.69531 5.15625 5.19531 5.15625 5.82031C5.15625 6.08594 5.19531 6.32812 5.27344 6.54688C5.35156 6.76562 5.5 6.96875 5.71875 7.15625C5.95312 7.34375 6.14844 7.5 6.30469 7.625C6.47656 7.75 6.75781 7.89062 7.14844 8.04688C7.55469 8.20312 7.85156 8.32031 8.03906 8.39844C8.24219 8.46094 8.60156 8.57031 9.11719 8.72656C9.64844 8.88281 10 8.99219 10.1719 9.05469C10.875 9.28906 11.5 9.54688 12.0469 9.82812C12.6094 10.1094 13.1484 10.4688 13.6641 10.9062C14.1797 11.3281 14.5781 11.8594 14.8594 12.5C15.1406 13.1406 15.2812 13.8594 15.2812 14.6562C15.2812 16.4844 14.6016 17.9062 13.2422 18.9219C11.8984 19.9219 10.2109 20.4219 8.17969 20.4219C6.41406 20.4219 4.83594 19.9922 3.44531 19.1328C2.05469 18.2734 1.04688 17.1016 0.421875 15.6172ZM17.7188 20V0.804688H30.6797V4.15625H21.6094V8.44531H29.7656V11.7266H21.6094V16.6719H30.9375V20H17.7188ZM32.3906 10.4141C32.3906 7.39844 33.1562 4.97656 34.6875 3.14844C36.2344 1.30469 38.2656 0.382812 40.7812 0.382812C43.2969 0.382812 45.3203 1.30469 46.8516 3.14844C48.3984 4.97656 49.1719 7.39844 49.1719 10.4141C49.1719 13.4297 48.3984 15.8516 46.8516 17.6797C45.3203 19.5078 43.2969 20.4219 40.7812 20.4219C38.25 20.4219 36.2188 19.5078 34.6875 17.6797C33.1562 15.8516 32.3906 13.4297 32.3906 10.4141ZM36.4219 10.4141C36.4219 12.4922 36.8047 14.125 37.5703 15.3125C38.3359 16.5 39.4062 17.0938 40.7812 17.0938C42.1562 17.0938 43.2266 16.5 43.9922 15.3125C44.7578 14.1094 45.1406 12.4766 45.1406 10.4141C45.1406 8.36719 44.7578 6.74219 43.9922 5.53906C43.2266 4.33594 42.1562 3.73438 40.7812 3.73438C39.4062 3.73438 38.3359 4.33594 37.5703 5.53906C36.8047 6.74219 36.4219 8.36719 36.4219 10.4141ZM51.75 12.6875V0.804688H55.6641V12.7109C55.6641 15.6328 56.7891 17.0938 59.0391 17.0938C61.2891 17.0938 62.4141 15.6328 62.4141 12.7109V0.804688H66.3281V12.6875C66.3281 15.1875 65.7188 17.1016 64.5 18.4297C63.2969 19.7578 61.4766 20.4219 59.0391 20.4219C56.7109 20.4219 54.9141 19.7891 53.6484 18.5234C52.3828 17.2422 51.75 15.2969 51.75 12.6875ZM69.8906 20V0.804688H73.7812V16.6719H82.2188V20H69.8906ZM90.1875 20V0.804688H97.8516C99.9453 0.804688 101.57 1.35937 102.727 2.46875C103.883 3.5625 104.461 5.01562 104.461 6.82812C104.461 8.6875 103.859 10.1641 102.656 11.2578C101.469 12.3359 99.8984 12.875 97.9453 12.875H94.0781V20H90.1875ZM94.0781 9.52344H97.4062C98.3594 9.52344 99.1016 9.28906 99.6328 8.82031C100.164 8.35156 100.43 7.6875 100.43 6.82812C100.43 5.04688 99.4297 4.15625 97.4297 4.15625H94.0781V9.52344ZM107.016 20V0.804688H119.977V4.15625H110.906V8.44531H119.062V11.7266H110.906V16.6719H120.234V20H107.016ZM121.219 4.15625V0.804688H135.797V4.15625H130.453V20H126.586V4.15625H121.219Z" fill="#58585A"/>
</svg>
