<svg width="205" height="37" viewBox="0 0 205 37" fill="none" xmlns="http://www.w3.org/2000/svg">
<path d="M0.444258 0.449999H17.1393C21.0093 0.449999 24.0243 1.44 26.1843 3.42C28.3443 5.4 29.4243 8.16 29.4243 11.7C29.4243 14.07 28.9293 16.17 27.9393 18C26.9793 19.8 25.5693 21.21 23.7093 22.23C21.8793 23.22 19.6893 23.715 17.1393 23.715H8.18426V36H0.444258V0.449999ZM15.4743 16.155C17.3643 16.155 18.8193 15.795 19.8393 15.075C20.8893 14.355 21.4143 13.365 21.4143 12.105C21.4143 10.815 20.8743 9.81 19.7943 9.09C18.7443 8.37 17.2293 8.01 15.2493 8.01H8.18426V16.155H15.4743ZM33.0401 12.6H40.3751V16.965C41.8451 13.875 44.8901 12.33 49.5101 12.33V19.485C47.3501 19.485 45.7001 19.545 44.5601 19.665C43.4201 19.755 42.4301 20.1 41.5901 20.7C40.7801 21.27 40.3751 22.215 40.3751 23.535V36H33.0401V12.6ZM59.7739 36.72C56.8639 36.72 54.6739 36.045 53.2039 34.695C51.7639 33.345 51.0439 31.68 51.0439 29.7C51.0439 27.63 51.9439 25.92 53.7439 24.57C55.5439 23.22 58.0789 22.335 61.3489 21.915L66.5689 21.285V20.79C66.5989 19.98 66.2989 19.35 65.6689 18.9C65.0389 18.45 64.1239 18.225 62.9239 18.225C61.8139 18.225 60.9289 18.465 60.2689 18.945C59.6389 19.425 59.3239 20.085 59.3239 20.925H51.9889C51.9889 18.075 52.9489 15.855 54.8689 14.265C56.8189 12.675 59.5339 11.88 63.0139 11.88C66.4939 11.88 69.1939 12.66 71.1139 14.22C73.0339 15.78 73.9939 17.97 73.9939 20.79V28.08C73.9939 29.01 74.0989 29.655 74.3089 30.015C74.5489 30.375 74.9989 30.555 75.6589 30.555L76.1989 30.51L76.1539 35.82C74.9539 36.06 73.9339 36.18 73.0939 36.18C71.4139 36.18 70.0939 35.835 69.1339 35.145C68.1739 34.425 67.5589 33.435 67.2889 32.175C65.9689 35.205 63.4639 36.72 59.7739 36.72ZM61.2589 31.32C62.6689 31.32 63.7939 30.885 64.6339 30.015C65.4739 29.115 66.0139 27.945 66.2539 26.505L64.6339 26.73C62.4139 27.03 60.8239 27.36 59.8639 27.72C58.9039 28.05 58.4239 28.575 58.4239 29.295C58.4239 29.955 58.6789 30.465 59.1889 30.825C59.6989 31.155 60.3889 31.32 61.2589 31.32ZM91.4916 36.72C89.1216 36.72 86.9916 36.195 85.1016 35.145C83.2416 34.065 81.7866 32.58 80.7366 30.69C79.6866 28.8 79.1616 26.655 79.1616 24.255C79.1616 21.885 79.6866 19.755 80.7366 17.865C81.7866 15.975 83.2416 14.505 85.1016 13.455C86.9916 12.405 89.1216 11.88 91.4916 11.88C93.4116 11.88 95.1816 12.285 96.8016 13.095C98.4216 13.905 99.7416 15.045 100.762 16.515C101.782 17.955 102.397 19.59 102.607 21.42H95.2266C95.1066 20.49 94.6716 19.725 93.9216 19.125C93.2016 18.525 92.3016 18.225 91.2216 18.225C89.8416 18.225 88.7166 18.795 87.8466 19.935C86.9766 21.045 86.5416 22.485 86.5416 24.255C86.5416 26.025 86.9766 27.495 87.8466 28.665C88.7166 29.805 89.8416 30.375 91.2216 30.375C92.3316 30.375 93.2466 30.09 93.9666 29.52C94.7166 28.92 95.1366 28.17 95.2266 27.27H102.607C102.397 29.1 101.782 30.735 100.762 32.175C99.7416 33.585 98.4216 34.695 96.8016 35.505C95.1816 36.315 93.4116 36.72 91.4916 36.72ZM122.615 35.955C120.455 36.105 118.775 36.18 117.575 36.18C115.715 36.18 114.26 36 113.21 35.64C112.16 35.28 111.38 34.635 110.87 33.705C110.39 32.775 110.165 31.44 110.195 29.7V19.35H105.2V12.6H110.195V6.3H117.575V12.6H123.47V19.35H117.575V25.74C117.575 26.88 117.62 27.705 117.71 28.215C117.83 28.725 118.055 29.085 118.385 29.295C118.745 29.505 119.345 29.61 120.185 29.61C120.815 29.61 121.625 29.565 122.615 29.475V35.955ZM132.179 9.945C130.829 9.945 129.719 9.525 128.849 8.685C127.979 7.815 127.544 6.72 127.544 5.4C127.544 4.08 127.979 3 128.849 2.16C129.719 1.32 130.829 0.899999 132.179 0.899999C133.499 0.899999 134.579 1.32 135.419 2.16C136.289 3 136.724 4.08 136.724 5.4C136.724 6.72 136.289 7.815 135.419 8.685C134.579 9.525 133.499 9.945 132.179 9.945ZM128.489 12.6H135.869V36H128.489V12.6ZM152.971 36.72C150.601 36.72 148.471 36.195 146.581 35.145C144.721 34.065 143.266 32.58 142.216 30.69C141.166 28.8 140.641 26.655 140.641 24.255C140.641 21.885 141.166 19.755 142.216 17.865C143.266 15.975 144.721 14.505 146.581 13.455C148.471 12.405 150.601 11.88 152.971 11.88C154.891 11.88 156.661 12.285 158.281 13.095C159.901 13.905 161.221 15.045 162.241 16.515C163.261 17.955 163.876 19.59 164.086 21.42H156.706C156.586 20.49 156.151 19.725 155.401 19.125C154.681 18.525 153.781 18.225 152.701 18.225C151.321 18.225 150.196 18.795 149.326 19.935C148.456 21.045 148.021 22.485 148.021 24.255C148.021 26.025 148.456 27.495 149.326 28.665C150.196 29.805 151.321 30.375 152.701 30.375C153.811 30.375 154.726 30.09 155.446 29.52C156.196 28.92 156.616 28.17 156.706 27.27H164.086C163.876 29.1 163.261 30.735 162.241 32.175C161.221 33.585 159.901 34.695 158.281 35.505C156.661 36.315 154.891 36.72 152.971 36.72ZM176.712 36.72C173.802 36.72 171.612 36.045 170.142 34.695C168.702 33.345 167.982 31.68 167.982 29.7C167.982 27.63 168.882 25.92 170.682 24.57C172.482 23.22 175.017 22.335 178.287 21.915L183.507 21.285V20.79C183.537 19.98 183.237 19.35 182.607 18.9C181.977 18.45 181.062 18.225 179.862 18.225C178.752 18.225 177.867 18.465 177.207 18.945C176.577 19.425 176.262 20.085 176.262 20.925H168.927C168.927 18.075 169.887 15.855 171.807 14.265C173.757 12.675 176.472 11.88 179.952 11.88C183.432 11.88 186.132 12.66 188.052 14.22C189.972 15.78 190.932 17.97 190.932 20.79V28.08C190.932 29.01 191.037 29.655 191.247 30.015C191.487 30.375 191.937 30.555 192.597 30.555L193.137 30.51L193.092 35.82C191.892 36.06 190.872 36.18 190.032 36.18C188.352 36.18 187.032 35.835 186.072 35.145C185.112 34.425 184.497 33.435 184.227 32.175C182.907 35.205 180.402 36.72 176.712 36.72ZM178.197 31.32C179.607 31.32 180.732 30.885 181.572 30.015C182.412 29.115 182.952 27.945 183.192 26.505L181.572 26.73C179.352 27.03 177.762 27.36 176.802 27.72C175.842 28.05 175.362 28.575 175.362 29.295C175.362 29.955 175.617 30.465 176.127 30.825C176.637 31.155 177.327 31.32 178.197 31.32ZM197.044 0.449999H204.424V36H197.044V0.449999Z" fill="#222222"/>
</svg>
