<svg width="269" height="37" viewBox="0 0 269 37" fill="none" xmlns="http://www.w3.org/2000/svg">
<path d="M0.558516 0.449999H17.2535C21.1235 0.449999 24.1385 1.44 26.2985 3.42C28.4585 5.4 29.5385 8.16 29.5385 11.7C29.5385 16.08 27.7835 19.035 24.2735 20.565C25.4735 20.925 26.3885 21.54 27.0185 22.41C27.6485 23.25 28.0835 24.42 28.3235 25.92C28.5335 27.27 28.6985 28.59 28.8185 29.88C28.9685 31.14 29.1185 32.145 29.2685 32.895C29.4185 33.615 29.7185 34.485 30.1685 35.505V36H21.9335C21.5435 35.07 21.2435 34.05 21.0335 32.94C20.8235 31.83 20.5685 30.195 20.2685 28.035C20.0585 26.505 19.8185 25.41 19.5485 24.75C19.3085 24.09 18.8735 23.625 18.2435 23.355C17.6135 23.085 16.5935 22.95 15.1835 22.95H8.29852V36H0.558516V0.449999ZM15.9935 16.155C17.8535 16.155 19.2335 15.81 20.1335 15.12C21.0635 14.4 21.5285 13.395 21.5285 12.105C21.5285 10.785 21.0485 9.78 20.0885 9.09C19.1585 8.37 17.7185 8.01 15.7685 8.01H8.29852V16.155H15.9935ZM46.3861 36.72C44.0161 36.72 41.8861 36.195 39.9961 35.145C38.1361 34.065 36.6811 32.58 35.6311 30.69C34.5811 28.8 34.0561 26.655 34.0561 24.255C34.0561 21.885 34.5811 19.755 35.6311 17.865C36.6811 15.975 38.1361 14.505 39.9961 13.455C41.8861 12.405 44.0161 11.88 46.3861 11.88C48.5161 11.88 50.4211 12.405 52.1011 13.455C53.8111 14.475 55.1461 15.915 56.1061 17.775C57.0661 19.635 57.5461 21.78 57.5461 24.21V26.46H41.5711C41.9011 29.31 43.5511 30.735 46.5211 30.735C47.5111 30.735 48.3211 30.51 48.9511 30.06C49.5811 29.58 49.9561 28.95 50.0761 28.17H57.5011C57.1411 30.78 55.9411 32.865 53.9011 34.425C51.8611 35.955 49.3561 36.72 46.3861 36.72ZM50.1211 22.095C50.0611 20.955 49.6861 20.025 48.9961 19.305C48.3061 18.585 47.3461 18.225 46.1161 18.225C43.5361 18.225 42.0211 19.515 41.5711 22.095H50.1211ZM70.0396 36.72C67.1296 36.72 64.9396 36.045 63.4696 34.695C62.0296 33.345 61.3096 31.68 61.3096 29.7C61.3096 27.63 62.2096 25.92 64.0096 24.57C65.8096 23.22 68.3446 22.335 71.6146 21.915L76.8346 21.285V20.79C76.8646 19.98 76.5646 19.35 75.9346 18.9C75.3046 18.45 74.3896 18.225 73.1896 18.225C72.0796 18.225 71.1946 18.465 70.5346 18.945C69.9046 19.425 69.5896 20.085 69.5896 20.925H62.2546C62.2546 18.075 63.2146 15.855 65.1346 14.265C67.0846 12.675 69.7996 11.88 73.2796 11.88C76.7596 11.88 79.4596 12.66 81.3796 14.22C83.2996 15.78 84.2596 17.97 84.2596 20.79V28.08C84.2596 29.01 84.3646 29.655 84.5746 30.015C84.8146 30.375 85.2646 30.555 85.9246 30.555L86.4646 30.51L86.4196 35.82C85.2196 36.06 84.1996 36.18 83.3596 36.18C81.6796 36.18 80.3596 35.835 79.3996 35.145C78.4396 34.425 77.8246 33.435 77.5546 32.175C76.2346 35.205 73.7296 36.72 70.0396 36.72ZM71.5246 31.32C72.9346 31.32 74.0596 30.885 74.8996 30.015C75.7396 29.115 76.2796 27.945 76.5196 26.505L74.8996 26.73C72.6796 27.03 71.0896 27.36 70.1296 27.72C69.1696 28.05 68.6896 28.575 68.6896 29.295C68.6896 29.955 68.9446 30.465 69.4546 30.825C69.9646 31.155 70.6546 31.32 71.5246 31.32ZM100.731 36.72C97.1606 36.72 94.3406 35.985 92.2706 34.515C90.2006 33.045 89.1356 31.02 89.0756 28.44H96.4106C96.4706 29.46 96.9206 30.27 97.7606 30.87C98.6006 31.44 99.6506 31.725 100.911 31.725C101.991 31.725 102.861 31.485 103.521 31.005C104.181 30.525 104.511 29.97 104.511 29.34C104.511 28.56 104.106 28.035 103.296 27.765C102.486 27.465 101.166 27.195 99.3356 26.955C97.3556 26.715 95.7206 26.415 94.4306 26.055C93.1406 25.665 92.0156 24.975 91.0556 23.985C90.1256 22.995 89.6606 21.57 89.6606 19.71C89.6606 17.28 90.6656 15.375 92.6756 13.995C94.6856 12.585 97.4606 11.88 101.001 11.88C104.241 11.88 106.821 12.63 108.741 14.13C110.661 15.6 111.726 17.655 111.936 20.295H104.556C104.526 19.215 104.151 18.375 103.431 17.775C102.741 17.175 101.811 16.875 100.641 16.875C99.5306 16.875 98.6456 17.1 97.9856 17.55C97.3556 18 97.0406 18.6 97.0406 19.35C97.0406 20.07 97.4306 20.565 98.2106 20.835C98.9906 21.105 100.281 21.36 102.081 21.6C104.091 21.84 105.756 22.155 107.076 22.545C108.396 22.905 109.536 23.61 110.496 24.66C111.456 25.68 111.936 27.15 111.936 29.07C111.936 31.47 110.946 33.345 108.966 34.695C106.986 36.045 104.241 36.72 100.731 36.72ZM128.439 36.72C126.009 36.72 123.834 36.195 121.914 35.145C119.994 34.065 118.494 32.58 117.414 30.69C116.334 28.8 115.794 26.655 115.794 24.255C115.794 21.855 116.334 19.725 117.414 17.865C118.494 15.975 119.994 14.505 121.914 13.455C123.834 12.405 126.009 11.88 128.439 11.88C130.899 11.88 133.089 12.405 135.009 13.455C136.959 14.505 138.474 15.975 139.554 17.865C140.634 19.725 141.174 21.855 141.174 24.255C141.174 26.655 140.634 28.8 139.554 30.69C138.474 32.58 136.959 34.065 135.009 35.145C133.089 36.195 130.899 36.72 128.439 36.72ZM128.439 30.375C129.999 30.375 131.274 29.805 132.264 28.665C133.254 27.525 133.749 26.055 133.749 24.255C133.749 22.485 133.254 21.045 132.264 19.935C131.274 18.795 129.999 18.225 128.439 18.225C126.909 18.225 125.649 18.795 124.659 19.935C123.669 21.075 123.174 22.515 123.174 24.255C123.174 26.025 123.669 27.495 124.659 28.665C125.649 29.805 126.909 30.375 128.439 30.375ZM145.523 12.6H152.903V15.75C154.613 13.17 157.223 11.88 160.733 11.88C166.553 11.88 169.463 15.6 169.463 23.04V36H161.948V23.4C161.948 21.78 161.558 20.52 160.778 19.62C160.028 18.69 158.963 18.225 157.583 18.225C156.143 18.225 155.003 18.735 154.163 19.755C153.323 20.775 152.903 22.14 152.903 23.85V36H145.523V12.6ZM183.023 36.72C180.113 36.72 177.923 36.045 176.453 34.695C175.013 33.345 174.293 31.68 174.293 29.7C174.293 27.63 175.193 25.92 176.993 24.57C178.793 23.22 181.328 22.335 184.598 21.915L189.818 21.285V20.79C189.848 19.98 189.548 19.35 188.918 18.9C188.288 18.45 187.373 18.225 186.173 18.225C185.063 18.225 184.178 18.465 183.518 18.945C182.888 19.425 182.573 20.085 182.573 20.925H175.238C175.238 18.075 176.198 15.855 178.118 14.265C180.068 12.675 182.783 11.88 186.263 11.88C189.743 11.88 192.443 12.66 194.363 14.22C196.283 15.78 197.243 17.97 197.243 20.79V28.08C197.243 29.01 197.348 29.655 197.558 30.015C197.798 30.375 198.248 30.555 198.908 30.555L199.448 30.51L199.403 35.82C198.203 36.06 197.183 36.18 196.343 36.18C194.663 36.18 193.343 35.835 192.383 35.145C191.423 34.425 190.808 33.435 190.538 32.175C189.218 35.205 186.713 36.72 183.023 36.72ZM184.508 31.32C185.918 31.32 187.043 30.885 187.883 30.015C188.723 29.115 189.263 27.945 189.503 26.505L187.883 26.73C185.663 27.03 184.073 27.36 183.113 27.72C182.153 28.05 181.673 28.575 181.673 29.295C181.673 29.955 181.928 30.465 182.438 30.825C182.948 31.155 183.638 31.32 184.508 31.32ZM218.61 36.72C215.01 36.72 212.385 35.535 210.735 33.165V36H203.355V0.449999H210.735V15.435C212.415 13.065 215.04 11.88 218.61 11.88C220.53 11.88 222.24 12.405 223.74 13.455C225.27 14.505 226.455 15.975 227.295 17.865C228.135 19.725 228.555 21.84 228.555 24.21C228.555 26.64 228.135 28.8 227.295 30.69C226.455 32.58 225.27 34.065 223.74 35.145C222.24 36.195 220.53 36.72 218.61 36.72ZM215.955 30.375C217.485 30.375 218.73 29.805 219.69 28.665C220.68 27.495 221.175 26.025 221.175 24.255C221.175 22.485 220.68 21.045 219.69 19.935C218.73 18.795 217.485 18.225 215.955 18.225C214.425 18.225 213.165 18.795 212.175 19.935C211.215 21.045 210.735 22.485 210.735 24.255C210.735 26.025 211.215 27.495 212.175 28.665C213.165 29.805 214.425 30.375 215.955 30.375ZM232.886 0.449999H240.266V36H232.886V0.449999ZM257.368 36.72C254.998 36.72 252.868 36.195 250.978 35.145C249.118 34.065 247.663 32.58 246.613 30.69C245.563 28.8 245.038 26.655 245.038 24.255C245.038 21.885 245.563 19.755 246.613 17.865C247.663 15.975 249.118 14.505 250.978 13.455C252.868 12.405 254.998 11.88 257.368 11.88C259.498 11.88 261.403 12.405 263.083 13.455C264.793 14.475 266.128 15.915 267.088 17.775C268.048 19.635 268.528 21.78 268.528 24.21V26.46H252.553C252.883 29.31 254.533 30.735 257.503 30.735C258.493 30.735 259.303 30.51 259.933 30.06C260.563 29.58 260.938 28.95 261.058 28.17H268.483C268.123 30.78 266.923 32.865 264.883 34.425C262.843 35.955 260.338 36.72 257.368 36.72ZM261.103 22.095C261.043 20.955 260.668 20.025 259.978 19.305C259.288 18.585 258.328 18.225 257.098 18.225C254.518 18.225 253.003 19.515 252.553 22.095H261.103Z" fill="#222222"/>
</svg>
