<svg width="38" height="29" viewBox="0 0 38 29" fill="none" xmlns="http://www.w3.org/2000/svg">
<g clip-path="url(#clip0_30_285)">
<path d="M11.842 0.004L2.95999 13.578C0.986657 16.5007 -0.00034298 18.9047 -0.00100965 20.79C-0.0370539 22.8667 0.74861 24.8737 2.18499 26.374C2.87061 27.128 3.70982 27.7264 4.64613 28.1288C5.58243 28.5312 6.59409 28.7284 7.61299 28.707C8.59709 28.7232 9.57402 28.537 10.4832 28.1599C11.3923 27.7828 12.2142 27.223 12.898 26.515C13.6138 25.8044 14.1768 24.9551 14.5527 24.0191C14.9286 23.0832 15.1094 22.0803 15.084 21.072C15.1 19.431 14.6063 17.8255 13.671 16.477C12.7498 15.1262 11.417 14.109 9.87099 13.577L17.624 0.004H11.84H11.842ZM30.054 13.573L37.807 0H32.029L23.147 13.573C21.1737 16.4957 20.1867 18.8997 20.186 20.785C20.1497 22.8616 20.935 24.8685 22.371 26.369C23.0581 27.0938 23.8834 27.6737 24.7983 28.0742C25.7132 28.4747 26.6991 28.6879 27.6977 28.701C28.6964 28.7141 29.6875 28.527 30.6126 28.1507C31.5378 27.7744 32.3781 27.2165 33.084 26.51C33.7999 25.7995 34.3632 24.9502 34.7393 24.0142C35.1153 23.0783 35.2963 22.0754 35.271 21.067C35.2876 19.4262 34.7946 17.8207 33.86 16.472C32.9364 15.1197 31.6003 14.1025 30.051 13.572L30.054 13.573Z" fill="#222222"/>
</g>
<defs>
<clipPath id="clip0_30_285">
<rect width="37.808" height="28.707" fill="white"/>
</clipPath>
</defs>
</svg>
