<svg width="20" height="20" viewBox="0 0 20 20" fill="none" xmlns="http://www.w3.org/2000/svg">
<mask id="mask0_37_154" style="mask-type:alpha" maskUnits="userSpaceOnUse" x="0" y="0" width="20" height="20">
<rect width="20" height="20" fill="#D9D9D9"/>
</mask>
<g mask="url(#mask0_37_154)">
<path d="M6 15.9167C4.55556 15.6667 3.36111 14.9861 2.41667 13.875C1.47222 12.7639 1 11.4722 1 10C1 8.52778 1.46875 7.23264 2.40625 6.11458C3.34375 4.99653 4.54167 4.31944 6 4.08333V5.625C4.95833 5.84722 4.11458 6.36806 3.46875 7.1875C2.82292 8.00694 2.5 8.94444 2.5 10C2.5 11.0556 2.82292 11.9931 3.46875 12.8125C4.11458 13.6319 4.95833 14.1528 6 14.375V15.9167ZM12 16C10.3333 16 8.91667 15.4167 7.75 14.25C6.58333 13.0833 6 11.6667 6 10C6 8.33333 6.58333 6.91667 7.75 5.75C8.91667 4.58333 10.3333 4 12 4C12.7917 4 13.5521 4.15278 14.2812 4.45833C15.0104 4.76389 15.6667 5.19444 16.25 5.75L15.1875 6.8125C14.7569 6.39583 14.2674 6.07292 13.7188 5.84375C13.1701 5.61458 12.5972 5.5 12 5.5C10.75 5.5 9.6875 5.9375 8.8125 6.8125C7.9375 7.6875 7.5 8.75 7.5 10C7.5 11.25 7.9375 12.3125 8.8125 13.1875C9.6875 14.0625 10.75 14.5 12 14.5C12.5972 14.5 13.1701 14.3819 13.7188 14.1458C14.2674 13.9097 14.7569 13.5903 15.1875 13.1875L16.25 14.25C15.6667 14.8056 15.0104 15.2361 14.2812 15.5417C13.5521 15.8472 12.7917 16 12 16ZM17 13L15.9375 11.9375L17.125 10.75H11.25V9.25H17.125L15.9375 8.0625L17 7L20 10L17 13Z" fill="#222222"/>
</g>
</svg>
